<svg width="318" height="61" viewBox="0 0 318 61" fill="none" xmlns="http://www.w3.org/2000/svg">
<rect width="318" height="51" rx="20" fill="white"/>
<path d="M32.2325 29.8359H20.8438V28.4141H25.6563V25.9805H27.3926V28.4141H32.2325V29.8359ZM31.2344 21.9199H27.4336C27.4838 22.3984 27.6797 22.8564 28.0215 23.2939C28.3633 23.7269 28.8555 24.1006 29.4981 24.415C30.1407 24.7295 30.9154 24.9414 31.8223 25.0508L31.1934 26.4043C30.0997 26.2676 29.154 25.9827 28.3565 25.5498C27.559 25.1169 26.9483 24.5723 26.5245 23.916C26.1006 24.5723 25.4922 25.1169 24.6993 25.5498C23.9063 25.9827 22.9629 26.2676 21.8692 26.4043L21.2266 25.0508C22.1335 24.9414 22.9082 24.7295 23.5508 24.415C24.1934 24.1006 24.6856 23.7269 25.0274 23.2939C25.3737 22.8564 25.5743 22.3984 25.629 21.9199H21.8282V20.5254H25.6563V18.9668H27.3926V20.5254H31.2344V21.9199ZM43.5632 31.2578H41.9089V25.0098H40.7057V30.6562H39.1061V19.0215H40.7057V23.6152H41.9089V18.8164H43.5632V31.2578ZM37.7936 21.6602H34.9089V26.9717C35.5651 26.9626 36.1667 26.9375 36.7136 26.8965C37.2604 26.8555 37.8164 26.7826 38.3815 26.6777L38.5046 28.0996C37.8073 28.2318 37.1237 28.3206 36.4538 28.3662C35.7839 28.4072 34.9727 28.4323 34.0202 28.4414H33.1589V20.252H37.7936V21.6602ZM58.0625 20.9629V21.168C58.0625 21.8105 58.0511 22.3916 58.0283 22.9111C58.0101 23.4261 57.9599 24.0231 57.8779 24.7021C57.7959 25.3766 57.6705 26.1126 57.5019 26.9102L55.7929 26.7324C55.9707 25.9076 56.1074 25.0599 56.2031 24.1895L48.9843 24.5996L48.7382 23.1094L56.3056 22.8633C56.3284 22.4805 56.3444 21.9427 56.3535 21.25H49.1484V19.8555H58.0625V20.9629ZM59.1972 29.8223H47.8496V28.4004H51.9101V25.3926H53.6465V28.4004H59.1972V29.8223ZM69.9537 25.9668H61.149V19.8555H69.858V21.2637H62.8717V24.5723H69.9537V25.9668ZM71.1979 29.7402H59.8092V28.3047H71.1979V29.7402ZM83.1438 25.6934H71.7551V24.3945H83.1438V25.6934ZM81.7766 29.248H74.804V29.959H82.1457V31.1484H73.0676V28.1406H80.054V27.5117H73.054V26.3086H81.7766V29.248ZM81.7629 21.9609H74.9133V22.6309H81.9817V23.8066H73.177V20.8535H80.0129V20.2246H73.1497V19.0352H81.7629V21.9609ZM96.6861 21.6465H98.3677V23.082H96.6861V26.0762H94.9361V18.8164H96.6861V21.6465ZM88.9204 21.127H91.4634V19.541H93.2134V25.4609H87.1841V19.541H88.9204V21.127ZM91.4634 24.0938V22.4805H88.9204V24.0938H91.4634ZM96.7544 28.0176H90.2876V29.7266H96.9868V31.0938H88.5513V26.6367H96.7544V28.0176ZM102.275 19.4727C102.913 19.4727 103.489 19.6003 104.004 19.8555C104.519 20.1107 104.925 20.4661 105.221 20.9219C105.517 21.3776 105.665 21.8971 105.665 22.4805C105.665 23.0592 105.517 23.5765 105.221 24.0322C104.925 24.488 104.519 24.8457 104.004 25.1055C103.489 25.3607 102.913 25.4883 102.275 25.4883C101.632 25.4883 101.051 25.3607 100.531 25.1055C100.012 24.8457 99.6017 24.488 99.3009 24.0322C99.0047 23.5765 98.8566 23.0592 98.8566 22.4805C98.8566 21.8971 99.0047 21.3776 99.3009 20.9219C99.6017 20.4661 100.012 20.1107 100.531 19.8555C101.051 19.6003 101.632 19.4727 102.275 19.4727ZM102.275 20.9355C101.946 20.931 101.653 20.9925 101.393 21.1201C101.138 21.2477 100.937 21.43 100.791 21.667C100.645 21.8994 100.575 22.1706 100.579 22.4805C100.575 22.7995 100.645 23.0752 100.791 23.3076C100.937 23.54 101.138 23.7178 101.393 23.8408C101.653 23.9639 101.946 24.0254 102.275 24.0254C102.598 24.0254 102.885 23.9639 103.136 23.8408C103.391 23.7178 103.592 23.54 103.737 23.3076C103.888 23.0752 103.965 22.7995 103.97 22.4805C103.965 22.1706 103.888 21.8994 103.737 21.667C103.592 21.43 103.391 21.2477 103.136 21.1201C102.881 20.9925 102.594 20.931 102.275 20.9355ZM108.646 21.5098H110.327V22.918H108.646V25.7617H106.896V18.8164H108.646V21.5098ZM103.15 26.7598C103.14 27.2975 103.252 27.8079 103.485 28.291C103.722 28.7741 104.084 29.1865 104.571 29.5283C105.055 29.1729 105.417 28.749 105.658 28.2568C105.9 27.7601 106.025 27.2611 106.034 26.7598V26.2949H107.743V26.7598C107.743 27.4616 107.935 28.0859 108.318 28.6328C108.7 29.1751 109.288 29.5762 110.081 29.8359L109.234 31.1074C108.655 30.9023 108.167 30.6175 107.771 30.2529C107.379 29.8883 107.073 29.4554 106.855 28.9541C106.636 29.4691 106.34 29.9225 105.966 30.3145C105.592 30.7109 105.137 31.0163 104.599 31.2305C104.043 31.0208 103.573 30.7223 103.191 30.335C102.812 29.9521 102.518 29.5055 102.309 28.9951C102.081 29.4827 101.773 29.9066 101.386 30.2666C100.999 30.6312 100.534 30.9115 99.9914 31.1074L99.13 29.8359C99.6496 29.6491 100.085 29.3962 100.436 29.0771C100.787 28.7581 101.046 28.4004 101.215 28.0039C101.384 27.6029 101.468 27.1882 101.468 26.7598V26.2949H103.15V26.7598ZM120.551 23.4375H122.383V24.8594H120.551V31.2852H118.801V18.8164H120.551V23.4375ZM117.064 21.373H112.963V26.8281C113.943 26.819 114.818 26.7848 115.588 26.7256C116.358 26.6663 117.133 26.5684 117.912 26.4316L118.103 27.8945C117.269 28.0358 116.447 28.1338 115.636 28.1885C114.829 28.2386 113.902 28.2637 112.853 28.2637H112.279H111.226V19.9648H117.064V21.373ZM129.12 20.7715H131.444V18.8301H133.18V27.8809H131.444V24.832H129.12V25.8848H123.213V19.8281H129.12V20.7715ZM124.95 24.5312H127.411V21.209H124.95V24.5312ZM133.44 31.0391H124.895V27.0195H126.659V29.6445H133.44V31.0391ZM131.444 23.4512V22.1797H129.12V23.4512H131.444ZM139.08 20.1016H140.529L139.845 23.998H137.904L139.08 20.1016ZM148.387 21.4277H145.871C145.885 21.8607 145.999 22.2754 146.213 22.6719C146.427 23.0684 146.751 23.4238 147.184 23.7383C147.617 24.0527 148.15 24.2943 148.784 24.4629L147.991 25.8027C147.298 25.6204 146.703 25.3447 146.206 24.9756C145.71 24.6064 145.315 24.1644 145.024 23.6494C144.741 24.2191 144.347 24.709 143.841 25.1191C143.34 25.5293 142.731 25.8301 142.016 26.0215L141.196 24.6816C141.834 24.5085 142.371 24.2555 142.809 23.9229C143.246 23.5902 143.575 23.2096 143.793 22.7812C144.012 22.3483 144.126 21.8971 144.135 21.4277H141.633V20.0605H144.135V18.7617H145.899V20.0605H148.387V21.4277ZM151.162 21.7422H152.844V23.1641H151.162V26.1035H149.412V18.8164H151.162V21.7422ZM151.162 31.1211H143.028V26.623H151.162V31.1211ZM144.75 29.7266H149.44V28.0039H144.75V29.7266ZM156.683 19.6914C157.239 19.6914 157.74 19.8372 158.187 20.1289C158.638 20.4206 159.007 20.8353 159.294 21.373H162.028V18.8164H163.751V31.2852H162.028V26.623H159.424C159.146 27.2428 158.768 27.7214 158.289 28.0586C157.815 28.3958 157.28 28.5645 156.683 28.5645C156.054 28.5645 155.493 28.3844 155.001 28.0244C154.513 27.6598 154.133 27.1426 153.859 26.4727C153.586 25.7982 153.451 25.0143 153.456 24.1211C153.451 23.2324 153.586 22.4554 153.859 21.79C154.133 21.1201 154.513 20.6029 155.001 20.2383C155.493 19.8737 156.054 19.6914 156.683 19.6914ZM156.683 21.2637C156.373 21.2637 156.099 21.3753 155.862 21.5986C155.625 21.8174 155.441 22.1432 155.309 22.5762C155.181 23.0046 155.119 23.5195 155.124 24.1211C155.119 24.7272 155.181 25.2445 155.309 25.6729C155.441 26.1012 155.623 26.4271 155.855 26.6504C156.092 26.8691 156.368 26.9785 156.683 26.9785C156.997 26.9785 157.271 26.8691 157.503 26.6504C157.74 26.4316 157.922 26.1081 158.05 25.6797C158.177 25.2513 158.241 24.7318 158.241 24.1211C158.241 23.515 158.177 22.9977 158.05 22.5693C157.922 22.141 157.74 21.8174 157.503 21.5986C157.271 21.3753 156.997 21.2637 156.683 21.2637ZM159.779 22.7812C159.866 23.2142 159.909 23.6608 159.909 24.1211C159.909 24.4629 159.882 24.832 159.827 25.2285H162.028V22.7812H159.779ZM175.027 23.6836H176.859V25.1191H175.027V31.2578H173.304V18.8164H175.027V23.6836ZM172.457 22.0703H165.142V20.6758H167.959V19.0078H169.709V20.6758H172.457V22.0703ZM168.834 22.7676C169.435 22.7676 169.975 22.8952 170.454 23.1504C170.937 23.401 171.315 23.752 171.589 24.2031C171.867 24.6543 172.006 25.1647 172.006 25.7344C172.006 26.304 171.867 26.8145 171.589 27.2656C171.315 27.7168 170.937 28.07 170.454 28.3252C169.975 28.5758 169.435 28.7012 168.834 28.7012C168.228 28.7012 167.683 28.5758 167.2 28.3252C166.717 28.07 166.336 27.7168 166.058 27.2656C165.785 26.8145 165.648 26.304 165.648 25.7344C165.648 25.1647 165.785 24.6543 166.058 24.2031C166.336 23.752 166.717 23.401 167.2 23.1504C167.683 22.8952 168.228 22.7676 168.834 22.7676ZM168.834 24.1758C168.542 24.1803 168.28 24.2464 168.048 24.374C167.82 24.5016 167.64 24.6816 167.507 24.9141C167.38 25.1465 167.316 25.4199 167.316 25.7344C167.316 26.0534 167.38 26.3291 167.507 26.5615C167.64 26.7939 167.82 26.9717 168.048 27.0947C168.28 27.2132 168.542 27.2702 168.834 27.2656C169.125 27.2702 169.385 27.2132 169.613 27.0947C169.841 26.9717 170.019 26.7939 170.146 26.5615C170.274 26.3291 170.338 26.0534 170.338 25.7344C170.338 25.4199 170.274 25.1465 170.146 24.9141C170.019 24.6816 169.841 24.5016 169.613 24.374C169.385 24.2464 169.125 24.1803 168.834 24.1758ZM187.629 31.2578H185.866V18.8164H187.629V31.2578ZM183.897 20.1152C183.897 21.446 183.717 22.6559 183.357 23.7451C183.001 24.8343 182.4 25.8346 181.552 26.7461C180.704 27.653 179.563 28.446 178.127 29.125L177.211 27.7305C178.273 27.2292 179.148 26.6709 179.836 26.0557C180.529 25.4404 181.058 24.7591 181.422 24.0117C181.791 23.2598 182.024 22.4167 182.119 21.4824H177.881V20.1152H183.897ZM190.866 23.8477H189.403V20.1016H190.866V23.8477ZM205.338 31.2852H203.615V24.6133H201.305V28.332H195.303V19.7734H197.039V22.7949H199.596V19.7734H201.305V23.2051H203.615V18.8164H205.338V31.2852ZM199.596 26.9375V24.1621H197.039V26.9375H199.596ZM218.145 26.9102H206.77V25.543H218.145V26.9102ZM216.997 31.0391H208.165V27.5391H209.888V29.6445H216.997V31.0391ZM216.929 24.7637H208.192V19.2266H216.819V20.5527H209.942V21.3457H216.532V22.6309H209.942V23.4512H216.929V24.7637ZM224.431 18.9941C225.384 18.9941 226.197 19.0762 226.872 19.2402C227.546 19.4043 228.061 19.6458 228.416 19.9648C228.772 20.2793 228.952 20.6621 228.957 21.1133C228.952 21.569 228.772 21.9564 228.416 22.2754C228.061 22.5944 227.546 22.8359 226.872 23C226.197 23.1641 225.384 23.2461 224.431 23.2461C223.474 23.2461 222.656 23.1641 221.977 23C221.298 22.8359 220.781 22.5944 220.425 22.2754C220.07 21.9564 219.892 21.569 219.892 21.1133C219.892 20.6621 220.07 20.2793 220.425 19.9648C220.781 19.6458 221.298 19.4043 221.977 19.2402C222.656 19.0762 223.474 18.9941 224.431 18.9941ZM224.431 20.2656C223.524 20.2656 222.843 20.3385 222.387 20.4844C221.936 20.6257 221.715 20.8353 221.724 21.1133C221.72 21.4141 221.936 21.6305 222.374 21.7627C222.811 21.8949 223.497 21.9609 224.431 21.9609C225.37 21.9609 226.058 21.8949 226.496 21.7627C226.933 21.6305 227.152 21.4141 227.152 21.1133C227.152 20.8353 226.926 20.6257 226.475 20.4844C226.024 20.3385 225.343 20.2656 224.431 20.2656ZM230.105 25.2148H218.757V23.834H230.105V25.2148ZM228.724 29.1113H221.792V29.8633H229.052V31.1758H220.083V27.8945H227.001V27.2109H220.07V25.9395H228.724V29.1113ZM243.866 22.7129H235.212V18.9668H236.948V21.332H243.866V22.7129ZM245.178 24.8457H240.311V25.8164H243.811V29.0566H236.866V29.8359H244.194V31.1758H235.116V27.8398H242.075V27.1289H235.089V25.8164H238.602V24.8457H233.79V23.4512H245.178V24.8457ZM256.249 31.2852H254.513V24.7227H252.503V23.3008H254.513V18.8164H256.249V31.2852ZM251.806 24.5176H247.937V26.9512C248.899 26.9421 249.748 26.9147 250.487 26.8691C251.225 26.819 251.966 26.7279 252.708 26.5957L252.845 28.0176C251.975 28.1589 251.102 28.2568 250.227 28.3115C249.357 28.3617 248.356 28.3867 247.226 28.3867H246.201V23.1367H250.111V21.2637H246.173V19.8555H251.806V24.5176ZM269.07 27.0742H264.231V31.2578H262.508V27.0742H257.723V25.6797H269.07V27.0742ZM268.059 20.8398H264.429C264.488 21.2591 264.684 21.6602 265.017 22.043C265.349 22.4212 265.814 22.7493 266.411 23.0273C267.008 23.3008 267.717 23.4876 268.537 23.5879L267.908 24.9551C266.833 24.8092 265.908 24.5176 265.133 24.0801C264.363 23.6426 263.786 23.098 263.403 22.4463C263.016 23.098 262.439 23.6426 261.674 24.0801C260.908 24.5176 259.992 24.8092 258.926 24.9551L258.283 23.5879C259.09 23.4876 259.789 23.3008 260.382 23.0273C260.979 22.7493 261.444 22.4212 261.776 22.043C262.114 21.6602 262.314 21.2591 262.378 20.8398H258.748V19.4727H268.059V20.8398ZM273.674 21.9473C273.674 23.0592 273.852 24.0732 274.208 24.9893C274.563 25.9053 275.137 26.6185 275.93 27.1289L274.987 28.4824C273.984 27.8763 273.267 26.8805 272.834 25.4951C272.601 26.2243 272.294 26.8691 271.911 27.4297C271.528 27.9857 271.063 28.4277 270.516 28.7559L269.45 27.4707C270.32 26.9284 270.958 26.1742 271.364 25.208C271.774 24.2373 271.979 23.1777 271.979 22.0293V19.8828H273.674V21.9473ZM280.469 31.2578H278.801V18.8164H280.469V31.2578ZM277.858 30.6836H276.231V24.4355H274.618V23.0137H276.231V18.9941H277.858V30.6836ZM293.031 29.8086H281.642V28.373H284.185V25.3311C283.693 25.0348 283.312 24.6702 283.043 24.2373C282.774 23.7998 282.64 23.3099 282.64 22.7676C282.64 22.1068 282.84 21.5234 283.242 21.0176C283.643 20.5117 284.196 20.1198 284.903 19.8418C285.614 19.5592 286.418 19.418 287.316 19.418C288.209 19.418 289.009 19.5592 289.715 19.8418C290.426 20.1198 290.984 20.5117 291.39 21.0176C291.796 21.5234 292.001 22.1068 292.005 22.7676C292.001 23.2962 291.866 23.777 291.602 24.21C291.342 24.6383 290.975 25.0007 290.501 25.2969V28.373H293.031V29.8086ZM287.316 20.7988C286.723 20.7988 286.204 20.8763 285.757 21.0312C285.315 21.1862 284.971 21.4118 284.725 21.708C284.483 21.9997 284.363 22.3529 284.363 22.7676C284.363 23.1686 284.483 23.5173 284.725 23.8135C284.971 24.1097 285.317 24.3376 285.764 24.4971C286.211 24.6566 286.728 24.7363 287.316 24.7363C287.899 24.7363 288.414 24.6566 288.861 24.4971C289.307 24.3376 289.654 24.1097 289.9 23.8135C290.15 23.5173 290.278 23.1686 290.283 22.7676C290.278 22.3574 290.153 22.0042 289.907 21.708C289.66 21.4118 289.314 21.1862 288.867 21.0312C288.421 20.8763 287.904 20.7988 287.316 20.7988ZM288.738 28.373V25.96C288.268 26.0465 287.794 26.0898 287.316 26.0898C286.805 26.0898 286.336 26.0465 285.908 25.96V28.373H288.738ZM296.254 27.0332H294.504L294.326 20.1016H296.432L296.254 27.0332ZM295.393 30.123C295.183 30.123 294.989 30.0706 294.811 29.9658C294.634 29.861 294.492 29.722 294.388 29.5488C294.287 29.3711 294.24 29.1797 294.244 28.9746C294.24 28.7695 294.287 28.5804 294.388 28.4072C294.492 28.234 294.634 28.0973 294.811 27.9971C294.989 27.8923 295.183 27.8398 295.393 27.8398C295.588 27.8398 295.773 27.8923 295.946 27.9971C296.124 28.0973 296.265 28.234 296.37 28.4072C296.475 28.5804 296.527 28.7695 296.527 28.9746C296.527 29.1797 296.475 29.3711 296.37 29.5488C296.265 29.722 296.124 29.861 295.946 29.9658C295.773 30.0706 295.588 30.123 295.393 30.123Z" fill="#666666"/>
<path d="M265.5 61L255.541 50.5L275.459 50.5L265.5 61Z" fill="white"/>
</svg>
