<svg width="375" height="155" viewBox="0 0 375 155" fill="none" xmlns="http://www.w3.org/2000/svg">
<path d="M330.579 60.4893C332.572 60.4893 334.315 60.7384 335.81 61.2365C337.304 61.7347 338.572 62.2782 339.614 62.867C340.792 63.5916 341.833 64.3842 342.739 65.2447C343.373 64.8371 344.053 64.4521 344.777 64.0898C345.411 63.7728 346.113 63.501 346.883 63.2746C347.653 63.0029 348.423 62.867 349.193 62.867C351.186 62.867 352.726 63.2746 353.813 64.0898C354.899 64.905 355.443 65.8788 355.443 67.011C355.443 67.5998 355.284 68.1885 354.967 68.7773L339.071 98.8724L340.361 97.7175C345.706 94.5925 350.099 92.1469 353.541 90.3806C356.983 88.569 359.723 87.2329 361.761 86.3724C363.799 85.5119 365.248 84.9911 366.109 84.8099C367.015 84.5835 367.581 84.4702 367.807 84.4702C368.849 84.4702 369.641 84.8778 370.185 85.6931C370.774 86.463 371.068 87.4367 371.068 88.6143C371.068 89.9277 370.683 91.2637 369.913 92.6224C369.188 93.9811 368.056 94.9548 366.516 95.5436C364.478 96.5853 362.101 97.7175 359.383 98.9403C356.666 100.118 353.835 101.431 350.891 102.881C347.947 104.33 344.981 105.96 341.992 107.772C339.048 109.538 336.285 111.508 333.704 113.682L320.525 137.527C319.438 140.109 318.441 142.215 317.535 143.845C316.675 145.476 315.814 146.766 314.954 147.718C314.093 148.669 313.21 149.325 312.304 149.688C311.399 150.05 310.357 150.231 309.179 150.231C307.413 150.231 306.009 149.62 304.967 148.397C303.971 147.174 303.473 145.702 303.473 143.981C303.473 142.17 303.903 140.064 304.764 137.663C305.624 135.263 306.824 132.659 308.364 129.851C309.949 127.088 311.851 124.167 314.071 121.087C316.29 118.053 318.758 114.95 321.476 111.78L329.9 101.046C328.178 102.631 326.48 103.99 324.804 105.122C323.129 106.255 321.521 107.183 319.981 107.908C318.441 108.587 316.992 109.085 315.633 109.402C314.32 109.719 313.165 109.878 312.169 109.878C310.357 109.878 308.681 109.47 307.141 108.655C305.601 107.795 304.265 106.617 303.133 105.122C302.046 103.628 301.186 101.862 300.552 99.8235C299.918 97.7855 299.601 95.5662 299.601 93.1659C299.601 88.184 300.552 83.6777 302.454 79.6469C304.401 75.6161 306.87 72.1967 309.859 69.3887C312.893 66.5355 316.222 64.3389 319.845 62.799C323.514 61.2592 327.092 60.4893 330.579 60.4893ZM327.997 72.4458C325.869 72.4458 323.808 72.9893 321.815 74.0762C319.822 75.1179 318.056 76.5219 316.516 78.2882C314.976 80.0092 313.754 82.0019 312.848 84.2664C311.942 86.5309 311.489 88.8634 311.489 91.2637C311.489 91.9884 311.534 92.7809 311.625 93.6414C311.761 94.4567 312.01 95.2266 312.372 95.9512C312.78 96.6759 313.346 97.2873 314.071 97.7855C314.841 98.2384 315.882 98.4648 317.196 98.4648C318.147 98.4648 319.256 98.0572 320.525 97.242C321.838 96.3815 323.174 95.3172 324.533 94.049C325.937 92.7356 327.295 91.309 328.609 89.7691C329.922 88.184 331.1 86.6441 332.141 85.1496C333.228 83.655 334.089 82.319 334.723 81.1414C335.357 79.9186 335.674 79.0128 335.674 78.424C335.674 77.4277 335.402 76.5672 334.859 75.8425C334.315 75.0726 333.636 74.4385 332.821 73.9403C332.051 73.4422 331.213 73.0798 330.307 72.8534C329.447 72.5817 328.677 72.4458 327.997 72.4458Z" fill="#256CF8"/>
<path d="M248.035 68.6414C248.941 66.694 250.073 65.2447 251.432 64.2936C252.791 63.3425 254.127 62.867 255.44 62.867C256.527 62.867 257.501 63.2746 258.361 64.0898C259.222 64.8597 259.652 66.0146 259.652 67.5545C259.652 68.1432 259.584 68.7773 259.448 69.4566C259.313 70.136 259.063 70.8606 258.701 71.6306C259.697 70.3624 261.124 69.0717 262.981 67.7583C264.838 66.3996 266.876 65.1994 269.095 64.1577C271.36 63.0708 273.669 62.1876 276.024 61.5083C278.425 60.8289 280.689 60.4893 282.818 60.4893C285.218 60.4893 287.211 61.078 288.796 62.2556C290.427 63.3878 291.242 65.3353 291.242 68.098C291.242 69.7284 290.993 71.4268 290.495 73.1931C289.996 74.9594 289.34 76.7257 288.524 78.492C287.755 80.2583 286.871 82.0019 285.875 83.723C284.924 85.3987 283.973 86.9838 283.022 88.4784C282.071 89.973 281.187 91.3543 280.372 92.6224C279.602 93.8452 278.991 94.8643 278.538 95.6795C277.949 96.4041 277.655 97.242 277.655 98.1931C277.655 98.5554 277.768 98.8724 277.995 99.1442C278.221 99.4159 278.583 99.5518 279.082 99.5518C279.399 99.5518 279.761 99.5291 280.168 99.4838C280.576 99.3932 281.074 99.1441 281.663 98.7365C284.109 97.8307 286.6 96.6985 289.136 95.3398C291.717 93.9811 294.186 92.5545 296.541 91.0599C298.896 89.5201 301.047 88.0028 302.995 86.5083C304.987 84.9684 306.64 83.5871 307.954 82.3643C308.316 82.0472 308.678 81.8208 309.041 81.6849C309.403 81.549 309.743 81.4811 310.06 81.4811C310.83 81.4811 311.418 81.7755 311.826 82.3643C312.279 82.953 312.505 83.7003 312.505 84.6061C312.505 86.0101 312.053 87.5726 311.147 89.2936C310.286 91.0146 308.905 92.6224 307.003 94.117C304.421 95.9739 302.043 97.6722 299.87 99.2121C297.741 100.752 295.544 102.201 293.28 103.56C291.061 104.873 288.66 106.119 286.079 107.296C283.543 108.429 280.553 109.493 277.111 110.489C275.934 110.852 274.847 111.123 273.851 111.304C272.899 111.486 272.016 111.576 271.201 111.576C268.801 111.576 267.034 110.92 265.902 109.606C264.815 108.247 264.272 106.368 264.272 103.968C264.272 103.65 264.272 103.356 264.272 103.084C264.317 102.767 264.362 102.428 264.408 102.065C264.498 100.661 264.86 99.1215 265.495 97.4458C266.174 95.7701 266.966 94.049 267.872 92.2827C268.823 90.5164 269.82 88.7728 270.861 87.0518C271.903 85.2855 272.854 83.6324 273.715 82.0925C274.62 80.5074 275.368 79.1034 275.957 77.8806C276.545 76.6577 276.84 75.6614 276.84 74.8914C276.84 74.2121 276.636 73.646 276.228 73.1931C275.866 72.6949 275.3 72.4458 274.53 72.4458C271.631 72.4458 268.869 73.3063 266.242 75.0273C263.66 76.7483 261.237 78.8769 258.973 81.4132C256.708 83.9041 254.625 86.5536 252.723 89.3615C250.821 92.1695 249.145 94.6831 247.696 96.9023C246.79 98.3969 245.952 100.005 245.182 101.726C244.457 103.401 243.688 104.987 242.872 106.481C242.057 107.93 241.129 109.131 240.087 110.082C239.091 111.078 237.822 111.576 236.283 111.576C234.697 111.576 233.452 111.078 232.546 110.082C231.64 109.085 231.188 107.862 231.188 106.413C231.188 105.643 231.505 104.398 232.139 102.677C232.773 100.956 233.588 98.963 234.584 96.6985C235.581 94.434 236.69 92.011 237.913 89.4295C239.181 86.8027 240.427 84.2211 241.649 81.6849C242.918 79.1034 244.118 76.6804 245.25 74.4159C246.382 72.1514 247.311 70.2266 248.035 68.6414Z" fill="#256CF8"/>
<path d="M216.239 66.3993C217.009 65.1312 217.892 64.2254 218.889 63.6819C219.885 63.1384 220.904 62.8667 221.946 62.8667C223.667 62.8667 225.139 63.4328 226.361 64.5651C227.63 65.652 228.264 67.056 228.264 68.777C228.218 69.1846 228.15 69.5922 228.06 69.9999C228.015 70.4075 227.879 70.8151 227.652 71.2227C227.018 72.4002 226.497 73.3966 226.09 74.2118C225.682 75.027 225.297 75.797 224.935 76.5216C224.618 77.2009 224.301 77.8803 223.984 78.5596C223.667 79.239 223.282 80.0542 222.829 81.0053C222.285 82.1375 221.674 83.383 220.995 84.7417C220.315 86.0551 219.659 87.4138 219.024 88.8178C218.436 90.2218 217.915 91.6031 217.462 92.9618C217.054 94.3205 216.851 95.566 216.851 96.6982C216.851 97.9211 217.145 98.7363 217.734 99.1439C218.368 99.5062 219.251 99.6874 220.383 99.6874C221.651 99.6874 222.965 99.4156 224.323 98.8721C225.727 98.3287 227.131 97.6267 228.535 96.7662C229.939 95.9057 231.321 94.9319 232.679 93.845C234.038 92.7127 235.306 91.5805 236.484 90.4482C237.707 89.316 238.816 88.229 239.813 87.1874C240.854 86.1457 241.715 85.2172 242.394 84.402C243.3 83.5415 244.206 83.1113 245.111 83.1113C245.927 83.1113 246.583 83.4736 247.082 84.1982C247.625 84.9229 247.897 85.8513 247.897 86.9836C247.897 88.0252 247.625 89.1348 247.082 90.3124C246.583 91.4899 245.746 92.5995 244.568 93.6412C242.258 95.9962 239.903 98.2607 237.503 100.435C235.102 102.563 232.634 104.465 230.098 106.141C227.607 107.772 225.093 109.085 222.557 110.081C220.021 111.078 217.462 111.576 214.88 111.576C211.212 111.576 208.313 110.647 206.185 108.791C204.101 106.888 203.06 103.945 203.06 99.9591C203.06 97.8758 203.354 95.8377 203.943 93.845C204.532 91.8522 205.234 89.9274 206.049 88.0705C206.864 86.1683 207.725 84.3567 208.63 82.6357C209.536 80.8694 210.306 79.1937 210.94 77.6086C211.167 77.0198 211.552 76.114 212.095 74.8912C212.684 73.6683 213.295 72.4229 213.929 71.1547C214.654 69.6602 215.424 68.075 216.239 66.3993Z" fill="#256CF8"/>
<path d="M194.497 72.1058C192.822 75.3667 191.236 78.5596 189.742 81.6846C188.247 84.7643 186.843 87.6176 185.53 90.2444C184.986 91.3313 184.443 92.5994 183.899 94.0487C183.401 95.4527 183.152 96.6982 183.152 97.7851C183.152 98.4192 183.288 98.9174 183.56 99.2797C183.877 99.642 184.375 99.8232 185.054 99.8232C186.005 99.8232 187.206 99.5514 188.655 99.008C190.104 98.4192 191.667 97.6719 193.342 96.7661C195.018 95.815 196.784 94.7507 198.641 93.5732C200.498 92.3504 202.31 91.1049 204.076 89.8368C205.888 88.5234 207.609 87.2326 209.239 85.9645C210.87 84.6511 212.319 83.4509 213.587 82.3639C214.312 81.8657 214.991 81.6167 215.625 81.6167C216.395 81.6167 217.029 81.9563 217.527 82.6357C218.025 83.315 218.274 84.1755 218.274 85.2172C218.274 86.2589 218.025 87.3232 217.527 88.4101C217.029 89.4971 216.123 90.5614 214.81 91.6031C211.866 94.2752 208.877 96.8114 205.842 99.2118C202.853 101.612 199.864 103.741 196.875 105.598C193.931 107.409 191.01 108.859 188.111 109.945C185.213 111.032 182.405 111.576 179.688 111.576C177.876 111.576 176.359 111.327 175.136 110.829C173.913 110.376 172.917 109.742 172.147 108.926C171.422 108.066 170.901 107.092 170.584 106.005C170.267 104.873 170.109 103.673 170.109 102.405C170.109 100.14 170.494 97.7851 171.264 95.3395C172.034 92.8938 172.894 90.6973 173.845 88.7498C175.204 85.9418 176.54 83.1565 177.853 80.3938C179.212 77.6311 180.525 74.9817 181.793 72.4455H178.872C176.336 72.4455 174.592 72.0379 173.641 71.2226C172.69 70.4074 172.215 69.479 172.215 68.4373C172.215 67.9844 172.351 67.4409 172.622 66.8069C172.939 66.1275 173.37 65.5161 173.913 64.9726C174.502 64.3839 175.204 63.8857 176.019 63.4781C176.834 63.0705 177.763 62.8667 178.804 62.8667H186.141L200.476 34.402C201.381 32.681 202.491 31.4581 203.804 30.7335C205.163 29.9636 206.567 29.5786 208.016 29.5786C209.375 29.5786 210.62 29.9409 211.753 30.6656C212.885 31.3902 213.451 32.5904 213.451 34.2661C213.451 35.1266 213.247 36.0098 212.84 36.9156C212.477 37.7761 211.979 38.7951 211.345 39.9726C210.937 40.7426 210.439 41.671 209.851 42.758C209.262 43.7996 208.628 44.9319 207.948 46.1547C207.314 47.3322 206.635 48.5777 205.91 49.8911C205.231 51.2045 204.552 52.4726 203.872 53.6955C202.332 56.594 200.702 59.6511 198.981 62.8667H221.128C222.215 62.8667 223.211 62.9346 224.117 63.0705C225.023 63.161 225.793 63.3875 226.427 63.7498C227.106 64.0668 227.627 64.5197 227.989 65.1085C228.351 65.6973 228.533 66.4898 228.533 67.4862C228.533 67.9844 228.442 68.4826 228.261 68.9808C228.125 69.479 227.831 69.9319 227.378 70.3395C226.97 70.7471 226.381 71.0868 225.611 71.3585C224.887 71.6302 223.936 71.8114 222.758 71.902L194.497 72.1058Z" fill="#256CF8"/>
<path d="M152.579 90.2446C152.081 91.2862 151.582 92.5091 151.084 93.913C150.631 95.2717 150.405 96.4946 150.405 97.5815C150.405 98.2609 150.541 98.8044 150.813 99.212C151.084 99.6196 151.605 99.8234 152.375 99.8234C153.326 99.8234 154.504 99.5516 155.908 99.0081C157.357 98.4194 158.897 97.6721 160.527 96.7663C162.203 95.8152 163.924 94.7509 165.69 93.5734C167.502 92.3505 169.291 91.1051 171.057 89.837C172.823 88.5235 174.499 87.2328 176.084 85.9647C177.715 84.6513 179.164 83.4511 180.432 82.3641C180.794 82.0471 181.225 81.8207 181.723 81.6848C182.221 81.5489 182.651 81.481 183.014 81.481C183.919 81.481 184.667 81.798 185.255 82.4321C185.844 83.0661 186.139 83.904 186.139 84.9456C186.139 85.8967 185.822 86.9611 185.188 88.1386C184.553 89.3161 183.444 90.471 181.859 91.6033C178.96 94.2754 176.039 96.8116 173.095 99.212C170.151 101.612 167.207 103.741 164.264 105.598C161.365 107.409 158.467 108.859 155.568 109.946C152.715 111.033 149.929 111.576 147.212 111.576C145.355 111.576 143.793 111.327 142.524 110.829C141.302 110.331 140.305 109.651 139.535 108.791C138.811 107.93 138.29 106.911 137.973 105.734C137.656 104.556 137.497 103.311 137.497 101.997C137.497 99.7781 137.814 97.5136 138.448 95.2038C139.128 92.8487 139.92 90.6975 140.826 88.75C142.411 85.2174 144.019 81.7074 145.649 78.2201C147.28 74.7328 148.774 71.5399 150.133 68.6413L170.717 24.8234C171.533 23.0571 172.62 21.8116 173.978 21.087C175.382 20.3623 176.786 20 178.19 20C179.594 20 180.862 20.385 181.995 21.1549C183.172 21.9248 183.761 23.1703 183.761 24.8913C183.761 25.7065 183.557 26.567 183.149 27.4728C182.787 28.3786 182.312 29.3524 181.723 30.394C180.591 32.5226 179.232 35.1268 177.647 38.2065C176.107 41.2862 174.431 44.6377 172.62 48.2609C170.853 51.8841 169.019 55.6658 167.117 59.606C165.26 63.5009 163.426 67.3053 161.614 71.019C159.848 74.7328 158.172 78.2654 156.587 81.6168C155.047 84.923 153.711 87.7989 152.579 90.2446Z" fill="#256CF8"/>
<path d="M124.179 69.7964C123.953 69.7511 123.749 69.7285 123.568 69.7285C123.387 69.7285 123.183 69.7285 122.957 69.7285C121.235 69.7285 119.628 70.0681 118.133 70.7475C116.639 71.4268 115.257 72.3326 113.989 73.4649C112.766 74.5518 111.657 75.7973 110.66 77.2013C109.709 78.6053 108.849 80.0092 108.079 81.4132C107.309 82.7719 106.652 84.0853 106.109 85.3534C105.61 86.6216 105.226 87.6859 104.954 88.5464C106.539 87.7312 108.169 86.8027 109.845 85.7611C111.566 84.7194 113.174 83.723 114.668 82.7719C116.163 81.8208 117.454 80.9603 118.541 80.1904C119.673 79.4205 120.466 78.8996 120.918 78.6279C122.957 77.3598 124.36 76.1823 125.13 75.0953C125.9 73.9631 126.285 72.9893 126.285 72.1741C126.285 71.4948 126.059 70.9513 125.606 70.5437C125.198 70.1361 124.723 69.887 124.179 69.7964ZM126.625 60.4214C130.384 60.4214 133.192 61.3272 135.049 63.1388C136.906 64.9504 137.834 67.464 137.834 70.6795C137.834 72.5817 137.336 74.5745 136.34 76.6578C135.343 78.7411 133.622 80.8698 131.177 83.0437C128.731 85.1723 125.447 87.3688 121.326 89.6333C117.25 91.8525 112.132 94.0944 105.973 96.3589C106.199 97.6723 106.901 98.714 108.079 99.4839C109.256 100.209 110.819 100.571 112.766 100.571C114.85 100.571 117.069 100.276 119.424 99.6877C121.824 99.0536 124.179 98.2611 126.489 97.31C128.844 96.3589 131.131 95.3399 133.351 94.2529C135.57 93.1207 137.562 92.0564 139.329 91.06C141.14 90.0636 142.635 89.2031 143.812 88.4784C145.035 87.7538 145.851 87.3009 146.258 87.1198C146.666 86.848 147.028 86.6895 147.345 86.6442C147.707 86.5989 148.024 86.5763 148.296 86.5763C148.84 86.5763 149.293 86.7121 149.655 86.9839C150.017 87.2103 150.312 87.5047 150.538 87.867C150.81 88.1841 150.991 88.5464 151.082 88.954C151.172 89.3163 151.217 89.6333 151.217 89.9051C151.217 90.3127 151.172 90.8109 151.082 91.3996C150.991 91.9431 150.651 92.5772 150.062 93.3018C149.836 93.5283 149.066 94.1397 147.753 95.1361C146.485 96.1324 144.832 97.31 142.793 98.6687C140.755 100.027 138.378 101.477 135.66 103.016C132.988 104.511 130.135 105.892 127.101 107.161C124.111 108.429 120.986 109.47 117.726 110.286C114.465 111.146 111.249 111.576 108.079 111.576C105.361 111.576 102.938 111.055 100.81 110.014C98.7264 108.972 96.9375 107.568 95.4429 105.802C93.9936 104.036 92.884 101.997 92.1141 99.6877C91.3442 97.3779 90.9592 94.9549 90.9592 92.4187C90.9592 90.4712 91.3442 88.3426 92.1141 86.0328C92.884 83.6777 93.9936 81.3227 95.4429 78.9676C96.8922 76.6125 98.6585 74.3254 100.742 72.1062C102.87 69.8417 105.248 67.8489 107.875 66.1279C110.502 64.4069 113.378 63.0256 116.503 61.9839C119.673 60.9422 123.047 60.4214 126.625 60.4214Z" fill="#256CF8"/>
<path d="M31.3098 107.568C31.3098 105.394 31.7853 103.175 32.7364 100.91C33.7328 98.646 34.9783 96.3135 36.4728 93.9132C37.9674 91.5128 39.5978 89.0898 41.3641 86.6441C43.1304 84.1532 44.8062 81.617 46.3913 79.0355C46.8442 78.3108 47.2065 77.6315 47.4783 76.9974C47.75 76.3181 47.8859 75.6387 47.8859 74.9594C47.8859 74.2347 47.6821 73.646 47.2745 73.1931C46.8668 72.6949 46.2781 72.4458 45.5082 72.4458C43.6513 72.4458 41.8623 72.8534 40.1413 73.6686C38.4203 74.4385 36.7672 75.4802 35.1821 76.7936C33.5969 78.0617 32.0797 79.5336 30.6304 81.2094C29.2264 82.8851 27.8904 84.6288 26.6223 86.4403C25.3995 88.2067 24.2446 89.973 23.1576 91.7393C22.0707 93.5056 21.0743 95.1134 20.1685 96.5626C19.3533 98.0572 18.606 99.6876 17.9266 101.454C17.2473 103.22 16.5 104.851 15.6848 106.345C14.9149 107.84 14.0317 109.085 13.0353 110.082C12.0389 111.123 10.7935 111.644 9.29891 111.644C7.66848 111.644 6.37772 111.123 5.42663 110.082C4.47554 109.04 4 107.795 4 106.345C4 105.53 4.29438 104.262 4.88315 102.541C5.47192 100.82 6.2192 98.8271 7.125 96.5626C8.07609 94.2528 9.1404 91.8072 10.3179 89.2257C11.4955 86.6441 12.6504 84.0853 13.7826 81.549C14.9601 79.0128 16.0471 76.6351 17.0435 74.4159C18.0851 72.1514 18.9457 70.2266 19.625 68.6414C20.4402 66.694 21.5045 65.2447 22.8179 64.2936C24.1766 63.3425 25.5127 62.867 26.8261 62.867C27.9583 62.867 28.9547 63.2972 29.8152 64.1577C30.721 64.973 31.1739 66.1731 31.1739 67.7583C31.1739 68.9358 30.9022 70.2266 30.3587 71.6306C31.5815 70.4983 32.8949 69.2755 34.2989 67.9621C35.7029 66.6487 37.2201 65.4485 38.8505 64.3615C40.5263 63.2293 42.3832 62.3009 44.4212 61.5762C46.4592 60.8516 48.7464 60.4893 51.2826 60.4893C52.5507 60.4893 53.7509 60.6478 54.8832 60.9648C56.0154 61.2818 57.0118 61.78 57.8723 62.4594C58.7781 63.1387 59.5027 64.0219 60.0462 65.1088C60.635 66.1958 60.9746 67.5092 61.0652 69.049C62.1069 68.0074 63.2391 66.9884 64.462 65.992C65.6848 64.9503 66.9982 64.0219 68.4022 63.2066C69.8515 62.3914 71.414 61.7347 73.0897 61.2365C74.7654 60.7384 76.6223 60.4893 78.6603 60.4893C80.1549 60.4893 81.5815 60.6478 82.9402 60.9648C84.2989 61.2818 85.4991 61.8253 86.5408 62.5952C87.6277 63.3199 88.4656 64.271 89.0543 65.4485C89.6884 66.626 90.0054 68.0753 90.0054 69.7963C90.0054 72.5137 89.3714 75.0952 88.1033 77.5409C86.8804 79.9865 85.4312 82.2284 83.7554 84.2664C83.212 84.9458 82.4873 85.8063 81.5815 86.848C80.6757 87.8896 79.7926 88.9992 78.9321 90.1768C78.0716 91.3543 77.3243 92.5771 76.6902 93.8452C76.0562 95.0681 75.7391 96.223 75.7391 97.3099C75.7391 98.3063 76.0335 98.9404 76.6223 99.2121C77.2563 99.4838 78.0716 99.6197 79.0679 99.6197C80.9701 99.6197 83.0308 99.0536 85.25 97.9213C87.4692 96.7891 89.6205 95.4304 91.7038 93.8452C93.8324 92.2148 95.8025 90.5391 97.6141 88.8181C99.471 87.0518 100.943 85.5798 102.03 84.4023C102.302 84.0853 102.619 83.8588 102.981 83.723C103.343 83.5871 103.706 83.5191 104.068 83.5191C104.883 83.5191 105.608 83.8815 106.242 84.6061C106.921 85.3307 107.261 86.2818 107.261 87.4594C107.261 88.3652 106.989 89.3615 106.446 90.4485C105.902 91.5355 104.974 92.5998 103.66 93.6414C101.215 95.9965 98.7011 98.261 96.1196 100.435C93.5833 102.564 91.0018 104.466 88.375 106.141C85.7935 107.772 83.1893 109.085 80.5625 110.082C77.981 111.078 75.3995 111.576 72.8179 111.576C69.4665 111.576 66.7491 110.784 64.6658 109.198C62.6277 107.613 61.6087 105.1 61.6087 101.658C61.6087 99.3932 62.0389 97.2646 62.8995 95.2719C63.76 93.2791 64.8243 91.3769 66.0924 89.5653C67.3605 87.7085 68.6966 85.9195 70.1005 84.1985C71.5045 82.4775 72.7274 80.7565 73.769 79.0355C74.2219 78.3108 74.5842 77.6315 74.856 76.9974C75.1277 76.3181 75.2636 75.6387 75.2636 74.9594C75.2636 74.2347 75.0598 73.646 74.6522 73.1931C74.2446 72.6949 73.6558 72.4458 72.8859 72.4458C71.029 72.4458 69.24 72.8534 67.519 73.6686C65.798 74.4385 64.1449 75.4802 62.5598 76.7936C60.9746 78.0617 59.4574 79.5336 58.0082 81.2094C56.6042 82.8851 55.2681 84.6288 54 86.4403C52.7772 88.2067 51.6223 89.973 50.5353 91.7393C49.4484 93.5056 48.452 95.1134 47.5462 96.5626C46.731 98.0572 45.9837 99.6876 45.3043 101.454C44.625 103.22 43.8777 104.851 43.0625 106.345C42.2926 107.84 41.4094 109.085 40.413 110.082C39.4167 111.123 38.1712 111.644 36.6766 111.644C36.1331 111.644 35.5444 111.531 34.9103 111.304C34.2763 111.123 33.6875 110.852 33.144 110.489C32.6458 110.127 32.2156 109.697 31.8533 109.198C31.5362 108.7 31.3551 108.157 31.3098 107.568Z" fill="#256CF8"/>
<path d="M234.121 39.5747C232.621 39.5749 231.205 40.1997 230.135 41.2798C229.562 41.8582 228.438 41.8582 227.865 41.2798C226.795 40.1997 225.379 39.5749 223.879 39.5747C220.632 39.5747 218 42.8684 218 46.4193C218 54.2102 226.394 59.9436 228.517 61.2691C228.814 61.455 229.186 61.455 229.483 61.2691C231.606 59.9436 240 54.2102 240 46.4193C240 42.8684 237.368 39.5747 234.121 39.5747Z" fill="#256CF8"/>
</svg>
