<svg width="94" height="39" viewBox="0 0 94 39" fill="none" xmlns="http://www.w3.org/2000/svg">
<path d="M82.6448 15.1226C83.143 15.1226 83.5788 15.1848 83.9525 15.3094C84.326 15.4339 84.643 15.5698 84.9035 15.717C85.198 15.8981 85.4583 16.0963 85.6848 16.3114C85.8433 16.2095 86.0133 16.1133 86.1943 16.0227C86.3528 15.9434 86.5283 15.8755 86.7208 15.8189C86.9133 15.751 87.1058 15.717 87.2983 15.717C87.7965 15.717 88.1815 15.8189 88.4533 16.0227C88.7248 16.2265 88.8608 16.4699 88.8608 16.753C88.8608 16.9002 88.821 17.0474 88.7418 17.1946L84.7678 24.7183L85.0903 24.4296C86.4265 23.6484 87.5248 23.037 88.3853 22.5954C89.2458 22.1425 89.9308 21.8085 90.4403 21.5933C90.9498 21.3782 91.312 21.248 91.5273 21.2027C91.7538 21.1461 91.8953 21.1178 91.9518 21.1178C92.2123 21.1178 92.4103 21.2197 92.5463 21.4235C92.6935 21.616 92.767 21.8594 92.767 22.1538C92.767 22.4822 92.6708 22.8162 92.4783 23.1558C92.297 23.4955 92.014 23.7389 91.629 23.8861C91.1195 24.1466 90.5253 24.4296 89.8458 24.7353C89.1665 25.0297 88.4588 25.358 87.7228 25.7205C86.9868 26.0827 86.2453 26.4902 85.498 26.9432C84.762 27.3847 84.0713 27.8772 83.426 28.4207L80.1313 34.382C79.8595 35.0275 79.6103 35.554 79.3838 35.9615C79.1688 36.3692 78.9535 36.6917 78.7385 36.9297C78.5233 37.1675 78.3025 37.3315 78.076 37.4222C77.8498 37.5127 77.5893 37.558 77.2948 37.558C76.8533 37.558 76.5023 37.4052 76.2418 37.0995C75.9928 36.7937 75.8683 36.4257 75.8683 35.9955C75.8683 35.5427 75.9758 35.0162 76.191 34.416C76.406 33.816 76.706 33.165 77.091 32.463C77.4873 31.7722 77.9628 31.042 78.5178 30.272C79.0725 29.5135 79.6895 28.7377 80.369 27.9452L82.475 25.2617C82.0445 25.658 81.62 25.9977 81.201 26.2807C80.7823 26.564 80.3803 26.796 79.9953 26.9772C79.6103 27.147 79.248 27.2715 78.9083 27.3507C78.58 27.43 78.2913 27.4697 78.0423 27.4697C77.5893 27.4697 77.1703 27.3677 76.7853 27.164C76.4003 26.949 76.0663 26.6545 75.7833 26.2807C75.5115 25.9072 75.2965 25.4657 75.138 24.9561C74.9795 24.4466 74.9003 23.8918 74.9003 23.2917C74.9003 22.0462 75.138 20.9197 75.6135 19.912C76.1003 18.9043 76.7175 18.0494 77.4648 17.3474C78.2233 16.6341 79.0555 16.085 79.9613 15.7C80.8785 15.315 81.773 15.1226 82.6448 15.1226ZM81.9993 18.1117C81.4673 18.1117 80.952 18.2476 80.4538 18.5193C79.9555 18.7797 79.514 19.1307 79.129 19.5723C78.744 20.0025 78.4385 20.5007 78.212 21.0668C77.9855 21.633 77.8723 22.2161 77.8723 22.8162C77.8723 22.9973 77.8835 23.1955 77.9063 23.4106C77.9403 23.6144 78.0025 23.8069 78.093 23.988C78.195 24.1692 78.3365 24.3221 78.5178 24.4466C78.7103 24.5598 78.9705 24.6164 79.299 24.6164C79.5368 24.6164 79.814 24.5145 80.1313 24.3107C80.4595 24.0956 80.7935 23.8295 81.1333 23.5125C81.4843 23.1841 81.8238 22.8275 82.1523 22.4425C82.4805 22.0462 82.775 21.6613 83.0353 21.2876C83.307 20.914 83.5223 20.58 83.6808 20.2856C83.8393 19.9799 83.9185 19.7534 83.9185 19.6062C83.9185 19.3572 83.8505 19.142 83.7148 18.9609C83.5788 18.7684 83.409 18.6099 83.2053 18.4853C83.0128 18.3608 82.8033 18.2702 82.5768 18.2136C82.3618 18.1457 82.1693 18.1117 81.9993 18.1117Z" fill="#256CF8"/>
<path d="M62.0087 17.1606C62.2352 16.6737 62.5182 16.3114 62.858 16.0736C63.1977 15.8359 63.5317 15.717 63.86 15.717C64.1317 15.717 64.3752 15.8189 64.5902 16.0227C64.8055 16.2152 64.913 16.5039 64.913 16.8889C64.913 17.036 64.896 17.1946 64.862 17.3644C64.8282 17.5342 64.7657 17.7154 64.6752 17.9079C64.9242 17.5908 65.281 17.2682 65.7452 16.9398C66.2095 16.6001 66.719 16.3001 67.2737 16.0397C67.84 15.7679 68.4172 15.5471 69.006 15.3773C69.6062 15.2075 70.1722 15.1226 70.7045 15.1226C71.3045 15.1226 71.8027 15.2697 72.199 15.5641C72.6067 15.8472 72.8105 16.3341 72.8105 17.0247C72.8105 17.4323 72.7482 17.8569 72.6237 18.2985C72.499 18.7401 72.335 19.1817 72.131 19.6232C71.9387 20.0648 71.7177 20.5007 71.4687 20.931C71.231 21.3499 70.9932 21.7462 70.7555 22.1198C70.5177 22.4935 70.2967 22.8388 70.093 23.1558C69.9005 23.4615 69.7477 23.7163 69.6345 23.9201C69.4872 24.1013 69.4137 24.3107 69.4137 24.5485C69.4137 24.6391 69.442 24.7183 69.4987 24.7863C69.5552 24.8542 69.6457 24.8882 69.7705 24.8882C69.8497 24.8882 69.9402 24.8825 70.042 24.8712C70.144 24.8485 70.2685 24.7863 70.4157 24.6844C71.0272 24.4579 71.65 24.1749 72.284 23.8352C72.9292 23.4955 73.5465 23.1389 74.1352 22.7652C74.724 22.3803 75.2617 22.0009 75.7487 21.6273C76.2467 21.2423 76.66 20.897 76.9885 20.5913C77.079 20.512 77.1695 20.4554 77.2602 20.4215C77.3507 20.3875 77.4357 20.3705 77.515 20.3705C77.7075 20.3705 77.8545 20.4441 77.9565 20.5913C78.0697 20.7385 78.1262 20.9253 78.1262 21.1518C78.1262 21.5028 78.0132 21.8934 77.7867 22.3236C77.5715 22.7539 77.2262 23.1558 76.7507 23.5295C76.1052 23.9937 75.5107 24.4183 74.9675 24.8033C74.4352 25.1882 73.886 25.5505 73.32 25.8902C72.7652 26.2185 72.165 26.53 71.5197 26.8242C70.8857 27.1075 70.1382 27.3735 69.2777 27.6225C68.9835 27.7132 68.7117 27.781 68.4627 27.8262C68.2247 27.8717 68.004 27.8942 67.8002 27.8942C67.2002 27.8942 66.7585 27.7302 66.4755 27.4017C66.2037 27.062 66.068 26.5922 66.068 25.9922C66.068 25.9127 66.068 25.8392 66.068 25.7712C66.0792 25.692 66.0905 25.6072 66.102 25.5165C66.1245 25.1655 66.215 24.7806 66.3737 24.3617C66.5435 23.9428 66.7415 23.5125 66.968 23.0709C67.2057 22.6293 67.455 22.1934 67.7152 21.7632C67.9757 21.3216 68.2135 20.9083 68.4287 20.5234C68.655 20.1271 68.842 19.7761 68.9892 19.4704C69.1362 19.1647 69.21 18.9156 69.21 18.7231C69.21 18.5533 69.159 18.4117 69.057 18.2985C68.9665 18.174 68.825 18.1117 68.6325 18.1117C67.9077 18.1117 67.2172 18.3268 66.5605 18.7571C65.915 19.1873 65.3092 19.7195 64.7432 20.3535C64.177 20.9763 63.6562 21.6386 63.1807 22.3406C62.7052 23.0426 62.2862 23.671 61.924 24.2258C61.6975 24.5995 61.488 25.0015 61.2955 25.4317C61.1142 25.8505 60.922 26.247 60.718 26.6205C60.5142 26.9827 60.2822 27.283 60.0217 27.5207C59.7727 27.7697 59.4555 27.8942 59.0707 27.8942C58.6742 27.8942 58.363 27.7697 58.1365 27.5207C57.91 27.2715 57.797 26.9657 57.797 26.6035C57.797 26.411 57.8762 26.0997 58.0347 25.6695C58.1932 25.2392 58.397 24.741 58.646 24.1749C58.8952 23.6087 59.1725 23.003 59.4782 22.3576C59.7952 21.7009 60.1067 21.0555 60.4122 20.4215C60.7295 19.7761 61.0295 19.1703 61.3125 18.6042C61.5955 18.0381 61.8277 17.5569 62.0087 17.1606Z" fill="#256CF8"/>
<path d="M54.0598 16.5999C54.2523 16.2829 54.473 16.0565 54.7223 15.9206C54.9713 15.7847 55.226 15.7168 55.4865 15.7168C55.9168 15.7168 56.2848 15.8583 56.5903 16.1414C56.9075 16.4131 57.066 16.7641 57.066 17.1944C57.0545 17.2963 57.0375 17.3982 57.015 17.5001C57.0038 17.602 56.9698 17.7039 56.913 17.8058C56.7545 18.1002 56.6243 18.3493 56.5225 18.5531C56.4205 18.7569 56.3243 18.9494 56.2338 19.1305C56.1545 19.3003 56.0753 19.4702 55.996 19.64C55.9168 19.8099 55.8205 20.0137 55.7073 20.2514C55.5713 20.5345 55.4185 20.8459 55.2488 21.1855C55.0788 21.5139 54.9148 21.8536 54.756 22.2046C54.609 22.5556 54.4788 22.9009 54.3655 23.2406C54.2635 23.5802 54.2128 23.8916 54.2128 24.1747C54.2128 24.4804 54.2863 24.6842 54.4335 24.7861C54.592 24.8767 54.8128 24.922 55.0958 24.922C55.4128 24.922 55.7413 24.854 56.0808 24.7181C56.4318 24.5823 56.7828 24.4068 57.1338 24.1917C57.4848 23.9765 57.8303 23.7331 58.1698 23.4614C58.5095 23.1783 58.8265 22.8952 59.121 22.6122C59.4268 22.3291 59.704 22.0574 59.9533 21.797C60.2135 21.5365 60.4288 21.3044 60.5985 21.1006C60.825 20.8855 61.0515 20.7779 61.2778 20.7779C61.4818 20.7779 61.6458 20.8685 61.7705 21.0497C61.9063 21.2308 61.9743 21.4629 61.9743 21.746C61.9743 22.0064 61.9063 22.2838 61.7705 22.5782C61.6458 22.8726 61.4365 23.15 61.142 23.4104C60.5645 23.9992 59.9758 24.5653 59.3758 25.1089C58.7755 25.6409 58.1585 26.1164 57.5245 26.5354C56.9018 26.9431 56.2733 27.2714 55.6393 27.5204C55.0053 27.7696 54.3655 27.8941 53.72 27.8941C52.803 27.8941 52.0783 27.6619 51.5463 27.1979C51.0253 26.7221 50.765 25.9864 50.765 24.9899C50.765 24.4691 50.8385 23.9595 50.9858 23.4614C51.133 22.9632 51.3085 22.482 51.5123 22.0177C51.716 21.5422 51.9313 21.0893 52.1575 20.659C52.384 20.2175 52.5765 19.7985 52.735 19.4023C52.7918 19.2551 52.888 19.0286 53.0238 18.7229C53.171 18.4172 53.3238 18.1058 53.4823 17.7888C53.6635 17.4152 53.856 17.0189 54.0598 16.5999Z" fill="#256CF8"/>
<path d="M48.6242 18.0263C48.2055 18.8416 47.809 19.6398 47.4355 20.421C47.0617 21.191 46.7107 21.9043 46.3825 22.561C46.2465 22.8327 46.1107 23.1497 45.9747 23.5121C45.8502 23.8631 45.788 24.1744 45.788 24.4462C45.788 24.6047 45.822 24.7292 45.89 24.8198C45.9692 24.9104 46.0937 24.9557 46.2635 24.9557C46.5012 24.9557 46.8015 24.8877 47.1637 24.7519C47.526 24.6047 47.9167 24.4179 48.3355 24.1914C48.7545 23.9536 49.196 23.6876 49.6602 23.3932C50.1245 23.0875 50.5775 22.7761 51.019 22.4591C51.472 22.1307 51.9022 21.808 52.3097 21.491C52.7175 21.1627 53.0797 20.8626 53.3967 20.5909C53.578 20.4663 53.7477 20.4041 53.9062 20.4041C54.0987 20.4041 54.2572 20.489 54.3817 20.6588C54.5062 20.8286 54.5685 21.0438 54.5685 21.3042C54.5685 21.5646 54.5062 21.8307 54.3817 22.1024C54.2572 22.3742 54.0307 22.6402 53.7025 22.9007C52.9665 23.5687 52.2192 24.2027 51.4605 24.8028C50.7132 25.4029 49.966 25.9351 49.2187 26.3994C48.4827 26.8521 47.7525 27.2146 47.0277 27.4861C46.3032 27.7579 45.6012 27.8939 44.922 27.8939C44.469 27.8939 44.0897 27.8316 43.784 27.7071C43.4782 27.5939 43.2292 27.4354 43.0367 27.2314C42.8555 27.0164 42.7252 26.7729 42.646 26.5011C42.5667 26.2181 42.5272 25.9181 42.5272 25.6011C42.5272 25.0349 42.6235 24.4462 42.816 23.8348C43.0085 23.2233 43.2235 22.6742 43.4612 22.1873C43.801 21.4853 44.135 20.789 44.4632 20.0983C44.803 19.4077 45.1312 18.7453 45.4482 18.1113H44.718C44.084 18.1113 43.648 18.0094 43.4102 17.8055C43.1725 17.6017 43.0537 17.3696 43.0537 17.1092C43.0537 16.996 43.0877 16.8601 43.1555 16.7016C43.2347 16.5318 43.3425 16.3789 43.4782 16.243C43.6255 16.0959 43.801 15.9713 44.0047 15.8694C44.2085 15.7675 44.4407 15.7166 44.701 15.7166H46.5352L50.119 8.60038C50.3452 8.17013 50.6227 7.86441 50.951 7.68326C51.2907 7.49078 51.6417 7.39453 52.004 7.39453C52.3437 7.39453 52.655 7.48511 52.9382 7.66628C53.2212 7.84743 53.3627 8.14748 53.3627 8.56641C53.3627 8.78153 53.3117 9.00233 53.21 9.22878C53.1192 9.44391 52.9947 9.69866 52.8362 9.99303C52.7342 10.1855 52.6097 10.4176 52.4627 10.6894C52.3155 10.9498 52.157 11.2329 51.987 11.5386C51.8285 11.8329 51.6587 12.1443 51.4775 12.4727C51.3077 12.801 51.138 13.118 50.968 13.4238C50.583 14.1484 50.1755 14.9127 49.7452 15.7166H55.282C55.5537 15.7166 55.8027 15.7335 56.0292 15.7675C56.2557 15.7901 56.4482 15.8468 56.6067 15.9373C56.7765 16.0166 56.9067 16.1298 56.9972 16.277C57.0877 16.4242 57.1332 16.6223 57.1332 16.8714C57.1332 16.996 57.1105 17.1205 57.0652 17.2451C57.0312 17.3696 56.9577 17.4829 56.8445 17.5848C56.7425 17.6867 56.5952 17.7716 56.4027 17.8395C56.2217 17.9074 55.984 17.9527 55.6895 17.9754L48.6242 18.0263Z" fill="#256CF8"/>
<path d="M38.1448 22.5611C38.0203 22.8215 37.8955 23.1273 37.771 23.4783C37.6578 23.8179 37.6013 24.1236 37.6013 24.3954C37.6013 24.5652 37.6353 24.7011 37.7033 24.803C37.771 24.9049 37.9013 24.9559 38.0938 24.9559C38.3315 24.9559 38.626 24.8879 38.977 24.752C39.3393 24.6049 39.7243 24.418 40.1318 24.1916C40.5508 23.9538 40.981 23.6877 41.4225 23.3934C41.8755 23.0876 42.3228 22.7763 42.7643 22.4592C43.2058 22.1309 43.6248 21.8082 44.021 21.4912C44.4288 21.1628 44.791 20.8628 45.108 20.591C45.1985 20.5118 45.3063 20.4552 45.4308 20.4212C45.5553 20.3872 45.6628 20.3703 45.7535 20.3703C45.9798 20.3703 46.1668 20.4495 46.3138 20.608C46.461 20.7665 46.5348 20.976 46.5348 21.2364C46.5348 21.4742 46.4555 21.7403 46.297 22.0347C46.1383 22.329 45.861 22.6178 45.4648 22.9008C44.74 23.5689 44.0098 24.2029 43.2738 24.803C42.5378 25.403 41.8018 25.9352 41.066 26.3995C40.3413 26.8522 39.6168 27.2147 38.892 27.4865C38.1788 27.7582 37.4823 27.894 36.803 27.894C36.3388 27.894 35.9483 27.8318 35.631 27.7073C35.3255 27.5828 35.0763 27.4128 34.8838 27.1978C34.7028 26.9825 34.5725 26.7278 34.4933 26.4335C34.414 26.139 34.3743 25.8278 34.3743 25.4993C34.3743 24.9445 34.4535 24.3784 34.612 23.8009C34.782 23.2122 34.98 22.6744 35.2065 22.1875C35.6028 21.3044 36.0048 20.4269 36.4123 19.555C36.82 18.6832 37.1935 17.885 37.5333 17.1603L42.6793 6.20585C42.8833 5.76428 43.155 5.4529 43.4945 5.27175C43.8455 5.09057 44.1965 5 44.5475 5C44.8985 5 45.2155 5.09625 45.4988 5.28872C45.793 5.4812 45.9403 5.79258 45.9403 6.22283C45.9403 6.42663 45.8893 6.64175 45.7873 6.8682C45.6968 7.09465 45.578 7.3381 45.4308 7.5985C45.1478 8.13065 44.808 8.7817 44.4118 9.55163C44.0268 10.3216 43.6078 11.1594 43.155 12.0652C42.7133 12.971 42.2548 13.9164 41.7793 14.9015C41.315 15.8752 40.8565 16.8263 40.4035 17.7547C39.962 18.6832 39.543 19.5663 39.1468 20.4042C38.7618 21.2307 38.4278 21.9497 38.1448 22.5611Z" fill="#256CF8"/>
<path d="M31.0447 17.4492C30.9882 17.4379 30.9372 17.4322 30.8919 17.4322C30.8467 17.4322 30.7957 17.4322 30.7392 17.4322C30.3087 17.4322 29.9069 17.5171 29.5332 17.687C29.1597 17.8568 28.8142 18.0833 28.4972 18.3663C28.1914 18.6381 27.9142 18.9494 27.6649 19.3004C27.4272 19.6514 27.2122 20.0024 27.0197 20.3534C26.8272 20.6931 26.6629 21.0214 26.5272 21.3385C26.4024 21.6555 26.3064 21.9216 26.2384 22.1367C26.6347 21.9329 27.0422 21.7008 27.4612 21.4404C27.8914 21.18 28.2934 20.9309 28.6669 20.6931C29.0407 20.4553 29.3634 20.2402 29.6352 20.0477C29.9182 19.8552 30.1164 19.725 30.2294 19.6571C30.7392 19.3401 31.0899 19.0457 31.2824 18.7739C31.4749 18.4909 31.5712 18.2474 31.5712 18.0436C31.5712 17.8738 31.5147 17.7379 31.4014 17.636C31.2994 17.5341 31.1807 17.4719 31.0447 17.4492ZM31.6562 15.1055C32.5959 15.1055 33.2979 15.3319 33.7622 15.7848C34.2264 16.2377 34.4584 16.8661 34.4584 17.67C34.4584 18.1455 34.3339 18.6437 34.0849 19.1646C33.8357 19.6854 33.4054 20.2176 32.7942 20.761C32.1827 21.2932 31.3617 21.8423 30.3314 22.4084C29.3124 22.9632 28.0329 23.5237 26.4932 24.0898C26.5497 24.4182 26.7252 24.6786 27.0197 24.8711C27.3139 25.0524 27.7047 25.1429 28.1914 25.1429C28.7124 25.1429 29.2672 25.0691 29.8559 24.922C30.4559 24.7635 31.0447 24.5654 31.6222 24.3276C32.2109 24.0898 32.7827 23.8351 33.3377 23.5633C33.8924 23.2803 34.3904 23.0142 34.8322 22.7651C35.2849 22.516 35.6587 22.3009 35.9529 22.1197C36.2587 21.9386 36.4627 21.8253 36.5644 21.7801C36.6664 21.7121 36.7569 21.6725 36.8362 21.6612C36.9267 21.6498 37.0059 21.6442 37.0739 21.6442C37.2099 21.6442 37.3232 21.6781 37.4137 21.7461C37.5042 21.8027 37.5779 21.8763 37.6344 21.9669C37.7024 22.0461 37.7477 22.1367 37.7704 22.2386C37.7929 22.3292 37.8042 22.4084 37.8042 22.4764C37.8042 22.5783 37.7929 22.7028 37.7704 22.85C37.7477 22.9859 37.6627 23.1444 37.5154 23.3256C37.4589 23.3822 37.2664 23.535 36.9382 23.7841C36.6212 24.0332 36.2079 24.3276 35.6982 24.6673C35.1887 25.0069 34.5944 25.3694 33.9149 25.7541C33.2469 26.1279 32.5337 26.4731 31.7752 26.7904C31.0277 27.1074 30.2464 27.3676 29.4314 27.5716C28.6162 27.7866 27.8122 27.8941 27.0197 27.8941C26.3402 27.8941 25.7344 27.7639 25.2024 27.5036C24.6815 27.2431 24.2343 26.8921 23.8607 26.4506C23.4983 26.0091 23.2209 25.4994 23.0285 24.922C22.836 24.3446 22.7397 23.7388 22.7397 23.1048C22.7397 22.6179 22.836 22.0858 23.0285 21.5083C23.2209 20.9195 23.4983 20.3308 23.8607 19.742C24.223 19.1532 24.6646 18.5815 25.1854 18.0267C25.7174 17.4605 26.3119 16.9623 26.9687 16.5321C27.6254 16.1018 28.3444 15.7565 29.1257 15.4961C29.9182 15.2357 30.7617 15.1055 31.6562 15.1055Z" fill="#256CF8"/>
<path d="M7.82745 26.8922C7.82745 26.3487 7.94633 25.794 8.1841 25.2277C8.4332 24.6617 8.74458 24.0786 9.1182 23.4785C9.49185 22.8784 9.89945 22.2727 10.341 21.6613C10.7826 21.0385 11.2016 20.4045 11.5978 19.7591C11.7111 19.5779 11.8016 19.4081 11.8696 19.2496C11.9375 19.0798 11.9715 18.9099 11.9715 18.7401C11.9715 18.5589 11.9205 18.4117 11.8186 18.2985C11.7167 18.174 11.5695 18.1117 11.3771 18.1117C10.9128 18.1117 10.4656 18.2136 10.0353 18.4174C9.60508 18.6099 9.1918 18.8703 8.79552 19.1986C8.39922 19.5157 8.01992 19.8836 7.6576 20.3026C7.3066 20.7215 6.9726 21.1574 6.65557 21.6103C6.34987 22.0519 6.06115 22.4935 5.7894 22.9351C5.51768 23.3766 5.26858 23.7786 5.04213 24.1409C4.83833 24.5145 4.6515 24.9221 4.48165 25.3637C4.31182 25.8052 4.125 26.213 3.9212 26.5865C3.72873 26.9602 3.50793 27.2715 3.25883 27.5207C3.00973 27.781 2.69838 27.9112 2.32473 27.9112C1.91712 27.9112 1.59443 27.781 1.35666 27.5207C1.11889 27.2602 1 26.949 1 26.5865C1 26.3827 1.0736 26.0657 1.22079 25.6355C1.36798 25.2052 1.5548 24.707 1.78125 24.1409C2.01902 23.5634 2.2851 22.952 2.57947 22.3067C2.87387 21.6613 3.1626 21.0216 3.44565 20.3875C3.74003 19.7534 4.01178 19.159 4.26088 18.6042C4.52128 18.0381 4.73642 17.5569 4.90625 17.1606C5.11005 16.6737 5.37612 16.3114 5.70447 16.0736C6.04415 15.8359 6.37817 15.717 6.70652 15.717C6.98957 15.717 7.23868 15.8245 7.4538 16.0397C7.68025 16.2435 7.79348 16.5435 7.79348 16.9398C7.79348 17.2342 7.72555 17.5569 7.58967 17.9079C7.89537 17.6248 8.22373 17.3191 8.57473 16.9908C8.92573 16.6624 9.30502 16.3624 9.71262 16.0906C10.1316 15.8076 10.5958 15.5755 11.1053 15.3943C11.6148 15.2131 12.1866 15.1226 12.8207 15.1226C13.1377 15.1226 13.4377 15.1622 13.7208 15.2414C14.0039 15.3207 14.2529 15.4452 14.4681 15.6151C14.6945 15.7849 14.8757 16.0057 15.0115 16.2774C15.1587 16.5492 15.2437 16.8775 15.2663 17.2625C15.5267 17.0021 15.8098 16.7473 16.1155 16.4982C16.4212 16.2378 16.7495 16.0057 17.1005 15.8019C17.4629 15.5981 17.8535 15.4339 18.2724 15.3094C18.6913 15.1848 19.1556 15.1226 19.6651 15.1226C20.0387 15.1226 20.3954 15.1622 20.7351 15.2414C21.0747 15.3207 21.3748 15.4566 21.6352 15.649C21.9069 15.8302 22.1164 16.068 22.2636 16.3624C22.4221 16.6567 22.5014 17.0191 22.5014 17.4493C22.5014 18.1287 22.3429 18.774 22.0258 19.3855C21.7201 19.9969 21.3578 20.5573 20.9389 21.0668C20.803 21.2367 20.6218 21.4518 20.3954 21.7122C20.1689 21.9726 19.9481 22.25 19.733 22.5444C19.5179 22.8388 19.3311 23.1445 19.1726 23.4615C19.0141 23.7673 18.9348 24.056 18.9348 24.3277C18.9348 24.5768 19.0084 24.7353 19.1556 24.8033C19.3141 24.8712 19.5179 24.9052 19.767 24.9052C20.2425 24.9052 20.7577 24.7636 21.3125 24.4806C21.8673 24.1975 22.4051 23.8578 22.9259 23.4615C23.4581 23.0539 23.9506 22.635 24.4035 22.2048C24.8677 21.7632 25.2357 21.3952 25.5075 21.1008C25.5755 21.0216 25.6548 20.9649 25.7453 20.931C25.8358 20.897 25.9265 20.88 26.017 20.88C26.2208 20.88 26.402 20.9706 26.5605 21.1518C26.7302 21.3329 26.8153 21.5707 26.8153 21.8651C26.8153 22.0915 26.7472 22.3406 26.6115 22.6124C26.4755 22.8841 26.2435 23.1502 25.915 23.4106C25.3038 23.9994 24.6753 24.5655 24.0299 25.109C23.3958 25.6412 22.7505 26.1167 22.0938 26.5355C21.4484 26.9432 20.7973 27.2715 20.1406 27.5207C19.4952 27.7697 18.8499 27.8942 18.2045 27.8942C17.3666 27.8942 16.6873 27.6962 16.1665 27.2997C15.6569 26.9035 15.4022 26.2752 15.4022 25.4147C15.4022 24.8485 15.5097 24.3164 15.7249 23.8182C15.94 23.32 16.2061 22.8445 16.5231 22.3916C16.8401 21.9274 17.1742 21.4801 17.5251 21.0499C17.8761 20.6196 18.1818 20.1894 18.4422 19.7591C18.5555 19.5779 18.6461 19.4081 18.714 19.2496C18.7819 19.0798 18.8159 18.9099 18.8159 18.7401C18.8159 18.5589 18.7649 18.4117 18.663 18.2985C18.5611 18.174 18.414 18.1117 18.2215 18.1117C17.7573 18.1117 17.31 18.2136 16.8797 18.4174C16.4495 18.6099 16.0362 18.8703 15.6399 19.1986C15.2436 19.5157 14.8644 19.8836 14.5021 20.3026C14.1511 20.7215 13.817 21.1574 13.5 21.6103C13.1943 22.0519 12.9056 22.4935 12.6338 22.9351C12.3621 23.3766 12.113 23.7786 11.8865 24.1409C11.6827 24.5145 11.4959 24.9221 11.3261 25.3637C11.1562 25.8052 10.9694 26.213 10.7656 26.5865C10.5731 26.9602 10.3523 27.2715 10.1032 27.5207C9.85417 27.781 9.5428 27.9112 9.16915 27.9112C9.03328 27.9112 8.8861 27.883 8.72758 27.8262C8.56908 27.781 8.42188 27.7132 8.286 27.6225C8.16145 27.532 8.0539 27.4245 7.96333 27.2997C7.88405 27.1752 7.83877 27.0395 7.82745 26.8922Z" fill="#256CF8"/>
<path d="M58.5303 9.89355C58.1553 9.8936 57.8012 10.0498 57.5337 10.3198C57.3905 10.4644 57.1095 10.4644 56.9663 10.3198C56.6988 10.0498 56.3447 9.8936 55.9697 9.89355C55.158 9.89355 54.5 10.717 54.5 11.6047C54.5 13.5524 56.5985 14.9858 57.1292 15.3172C57.2035 15.3636 57.2965 15.3636 57.3708 15.3172C57.9015 14.9858 60 13.5524 60 11.6047C60 10.717 59.342 9.89355 58.5303 9.89355Z" fill="#256CF8"/>
</svg>
